<svg width="111" height="31" viewBox="0 0 111 31" fill="none" xmlns="http://www.w3.org/2000/svg">
<path d="M0.470881 30L5.30043 0.90909H17.9141C20.13 0.90909 21.9434 1.20739 23.3544 1.80398C24.7749 2.40057 25.7786 3.24337 26.3658 4.33239C26.9624 5.4214 27.1375 6.70454 26.8913 8.18182C26.7019 9.24242 26.2947 10.2131 25.6697 11.0938C25.0542 11.965 24.273 12.7036 23.326 13.3097C22.3885 13.9062 21.3421 14.3182 20.1868 14.5455L20.13 14.8295C21.38 14.8674 22.469 15.1799 23.397 15.767C24.325 16.3447 25.0069 17.1496 25.4425 18.1818C25.8781 19.2045 25.9822 20.3977 25.755 21.7614C25.4898 23.3523 24.8411 24.768 23.8089 26.0085C22.7768 27.2491 21.4368 28.2244 19.7891 28.9347C18.1413 29.6449 16.2663 30 14.1641 30H0.470881ZM9.44815 23.6932H13.1413C14.4482 23.6932 15.4756 23.4422 16.2237 22.9403C16.9813 22.4384 17.4311 21.7045 17.5732 20.7386C17.6868 20.0568 17.63 19.4792 17.4027 19.0057C17.1754 18.5322 16.7919 18.1723 16.2521 17.9261C15.7124 17.6799 15.0353 17.5568 14.2209 17.5568H10.4141L9.44815 23.6932ZM11.2663 12.6705H14.505C15.1868 12.6705 15.8118 12.5616 16.38 12.3438C16.9482 12.1259 17.4169 11.8087 17.7862 11.392C18.1555 10.9754 18.3875 10.4735 18.4822 9.88636C18.6243 8.97727 18.4065 8.28598 17.8288 7.8125C17.2607 7.33902 16.4936 7.10227 15.5277 7.10227H12.1754L11.2663 12.6705ZM27.1896 30L32.0192 0.90909H39.9169L36.1669 23.6364H47.9283L46.8487 30H27.1896ZM79.4197 15.9659C78.8894 19.1288 77.8383 21.7803 76.2663 23.9205C74.6944 26.0606 72.7862 27.6752 70.5419 28.7642C68.2976 29.8532 65.897 30.3977 63.3402 30.3977C60.6129 30.3977 58.2455 29.8059 56.2379 28.6222C54.2304 27.4384 52.7673 25.7055 51.8487 23.4233C50.9302 21.1411 50.7455 18.3523 51.2947 15.0568C51.8061 11.8939 52.8478 9.23295 54.4197 7.07386C55.9917 4.91477 57.9093 3.28125 60.1726 2.1733C62.4358 1.06534 64.8554 0.511363 67.4311 0.511363C70.1394 0.511363 72.4927 1.10795 74.4908 2.30114C76.4983 3.49432 77.9567 5.24148 78.8658 7.54261C79.7843 9.84375 79.969 12.6515 79.4197 15.9659ZM71.4652 15.0568C71.7304 13.3902 71.7493 11.9886 71.522 10.8523C71.2947 9.70644 70.8165 8.8447 70.0874 8.26705C69.3582 7.67992 68.3781 7.38636 67.147 7.38636C65.7455 7.38636 64.505 7.72727 63.4254 8.40909C62.3459 9.09091 61.451 10.071 60.7408 11.3494C60.0305 12.6278 59.5334 14.1667 59.2493 15.9659C58.9463 17.6515 58.9179 19.053 59.1641 20.1705C59.4197 21.2879 59.9216 22.1259 60.6697 22.6847C61.4273 23.2434 62.4122 23.5227 63.6243 23.5227C65.0069 23.5227 66.2285 23.1913 67.2891 22.5284C68.3591 21.8655 69.2446 20.9044 69.9453 19.6449C70.6555 18.3854 71.1622 16.8561 71.4652 15.0568ZM102.875 10.5114C102.837 10.0095 102.733 9.56913 102.562 9.19034C102.392 8.80208 102.151 8.47538 101.838 8.21023C101.526 7.93561 101.137 7.73201 100.673 7.59943C100.219 7.45739 99.6837 7.38636 99.0682 7.38636C97.7424 7.38636 96.535 7.7036 95.446 8.33807C94.357 8.97254 93.4432 9.88636 92.7045 11.0795C91.9754 12.2727 91.4735 13.7121 91.1989 15.3977C90.9148 17.1023 90.8911 18.5606 91.1278 19.7727C91.3646 20.9848 91.8759 21.9129 92.6619 22.5568C93.4574 23.2008 94.5322 23.5227 95.8864 23.5227C97.0985 23.5227 98.1449 23.3475 99.0256 22.9972C99.9063 22.6468 100.612 22.1496 101.142 21.5057C101.672 20.8617 102.004 20.1042 102.136 19.233L103.5 19.375H96.8523L97.7614 13.75H110.659L110.006 17.7841C109.57 20.4356 108.633 22.7036 107.193 24.5881C105.763 26.4631 103.983 27.9025 101.852 28.9062C99.7216 29.9006 97.3826 30.3977 94.8352 30.3977C92.0133 30.3977 89.6316 29.7964 87.6903 28.5938C85.7491 27.3911 84.3617 25.6771 83.5284 23.4517C82.7045 21.2263 82.5436 18.5795 83.0455 15.5114C83.4432 13.1061 84.1629 10.9754 85.2045 9.11932C86.2557 7.26326 87.5388 5.69602 89.054 4.41761C90.5691 3.12973 92.2405 2.15909 94.0682 1.50568C95.8958 0.842802 97.7898 0.511363 99.75 0.511363C101.464 0.511363 103.022 0.757575 104.423 1.25C105.825 1.73295 107.023 2.42424 108.017 3.32386C109.011 4.21401 109.755 5.26989 110.247 6.49148C110.749 7.71307 110.953 9.05303 110.858 10.5114H102.875Z" fill="#4CAF4F"/>
</svg>
